<?xml version="1.0" encoding="utf-8"?>
<!-- Generator: Adobe Illustrator 23.0.2, SVG Export Plug-In . SVG Version: 6.00 Build 0)  -->
<svg version="1.1" id="Layer_1" xmlns="http://www.w3.org/2000/svg" xmlns:xlink="http://www.w3.org/1999/xlink" x="0px" y="0px"
	 viewBox="0 0 16 16" style="enable-background:new 0 0 16 16;" xml:space="preserve">
<style type="text/css">
	.st0{fill-rule:evenodd;clip-rule:evenodd;fill:#FCFCFC;}
</style>
<path class="st0" d="M15.6,8.7l-7,7c-0.3,0.4-0.9,0.4-1.2,0c0,0,0,0,0,0l-7-7C0,8.4,0,7.8,0.4,7.5c0.3-0.4,0.9-0.4,1.2,0L7.1,13V6.6
	h1.8V13l5.5-5.5c0.3-0.4,0.9-0.4,1.2,0C16,7.8,16,8.4,15.6,8.7z"/>
<path class="st0" d="M8.9,0.9v14.3H7.1V0.9C7.1,0.4,7.5,0,8,0S8.9,0.4,8.9,0.9z"/>
</svg>
